####
#
# OBJ File Generated by Meshlab
#
####
# Object Island2.obj
#
# Vertices: 43
# Faces: 82
#
####
mtllib ./Island2.mtl

vn -0.0436593 -0.9988652 0.0190340
v 0.1103320 0.5520530 0.0898630
vn 0.8480598 0.5243944 -0.0761918
v 4.2884369 9.2005644 -0.9043490
vn 0.6640420 0.6408777 -0.3851286
v 3.7570240 9.2839622 -2.1885490
vn 0.0755480 0.4670678 -0.8809882
v 0.6129550 9.3536282 -4.4524651
vn -0.8563488 0.4510449 0.2514466
v -4.1881781 9.2387362 1.0752950
vn 0.2358397 0.3647192 0.9007550
v 0.0893200 9.5971794 4.6182499
vn 0.2815373 0.4583087 0.8430243
v 1.4466980 9.2512054 4.3076062
vn 0.0104548 0.9996448 -0.0245137
v 0.1055270 9.3041601 0.1937230
vn 0.8080183 0.4454960 0.3855384
v 4.2838759 9.2025633 1.9251500
vn -0.0540667 0.9978855 0.0360745
v 2.0265460 9.5019722 -0.1510850
vn -0.0179965 0.9958529 -0.0891798
v 1.1276780 9.2367125 -0.5544560
vn 0.1744569 0.9752524 0.1358220
v 0.9920780 9.3897781 -1.8592590
vn 0.4266959 0.5649064 -0.7062658
v 2.6743970 9.3632755 -3.5838439
vn -0.2978349 0.4901409 -0.8191803
v -0.8773230 9.2038670 -4.1513119
vn -0.6157284 0.4500723 -0.6467716
v -3.1834860 9.2537041 -3.0510161
vn 0.0602403 0.9975002 0.0369387
v -2.1410000 9.4364719 -1.3389610
vn -0.8618928 0.4487445 -0.2361552
v -4.2197819 9.2325392 -0.8838570
vn -0.5361356 0.4865108 0.6898304
v -2.8121130 9.2800522 3.6018751
vn -0.3668737 0.5259228 0.7673389
v -1.6863689 9.2294178 3.9991879
vn -0.4593883 -0.4710087 0.7530692
v -0.3392290 2.6488111 1.2054180
vn 0.7117234 -0.4761365 0.5164726
v 2.2911761 2.9506490 0.8339360
vn 0.8012009 -0.4466174 0.3982589
v 2.9224839 6.1532240 1.2697220
vn 0.7883646 -0.5320921 -0.3088031
v 3.9560139 5.7800460 -1.5846100
vn 0.5182512 -0.6292548 -0.5791840
v 3.0013249 5.7701421 -2.9108360
vn 0.3498793 -0.5688640 -0.7442972
v 1.0428610 2.8250360 -2.3718350
vn -0.8838643 -0.4660650 -0.0395894
v -2.9323010 5.7603011 -0.1491730
vn -0.1260743 -0.5321225 0.8372282
v -0.6680140 5.9292989 3.6090720
vn -0.2401965 0.5740114 0.7828261
v -0.9495300 9.3155804 4.2337618
vn 0.0033279 0.9961037 0.0881269
v -1.9684920 9.2745743 1.7606720
vn -0.8076460 -0.4788330 0.3441321
v -2.6306779 5.7582121 1.5877550
vn -0.0195151 0.9996934 -0.0152428
v -2.5197091 9.6596308 0.3808470
vn -0.0462530 0.9962112 -0.0736480
v -0.2339770 9.1931629 -0.5590610
vn -0.6468055 -0.4634697 -0.6056720
v -1.6134020 4.5159278 -1.1795300
vn -0.2135964 -0.3806862 -0.8996969
v -0.2164460 5.2972298 -2.5094900
vn 0.0228474 0.9911451 -0.1308030
v 0.5956660 9.7970123 -2.7439339
vn 0.5192135 -0.4310879 -0.7379570
v 1.6701421 4.9898081 -2.0810211
vn 0.6367710 -0.5681588 -0.5212660
v 2.7666090 6.2212319 -1.7207630
vn 0.8053809 -0.4260095 -0.4121621
v 1.7991490 3.5683129 -0.3609460
vn 0.8668675 0.4958182 0.0520105
v 4.3906722 9.2014275 0.9409920
vn 0.6533198 -0.3714758 0.6596810
v 1.5189910 6.2145190 2.4072771
vn 0.5358563 0.5144029 0.6695130
v 2.7153909 9.2763395 3.4654939
vn 0.4246896 -0.5175799 0.7427986
v 0.7966780 3.3082221 2.1862180
vn 0.4299885 0.4038352 0.8074820
v 0.3273100 9.3637800 4.2496490
# 43 vertices, 0 vertices normals


usemtl material_0
vt 0.1990234 0.4023576
vt 0.1990234 0.5976424
vt 0.1013811 0.5000000
f 7/1/7 40/2/40 41/3/41
vt 0.9023576 0.2990234
vt 0.9990234 0.2023576
vt 0.9990234 0.2990234
f 9/4/9 22/5/22 39/6/39
vt 0.1000000 0.4986190
vt 0.0023576 0.4009766
vt 0.1976424 0.4009766
f 3/7/3 24/8/24 13/9/13
vt 0.2009766 0.5976424
vt 0.2009766 0.4023576
vt 0.2986189 0.5000000
f 4/10/4 34/11/34 14/12/14
vt 0.0009766 0.9990234
vt 0.0009766 0.8023576
vt 0.1976424 0.9990234
f 14/13/14 34/14/34 15/15/15
vt 0.1990234 0.8009766
vt 0.1990234 0.9976424
vt 0.0023576 0.8009766
f 15/16/15 33/17/33 17/18/17
vt 0.4476424 0.1509765
vt 0.4009766 0.1976424
vt 0.4009766 0.1509765
f 28/19/28 43/20/43 6/21/6
vt 0.3000000 0.5013810
vt 0.3976424 0.5990235
vt 0.2023576 0.5990235
f 28/22/28 27/23/27 43/24/43
vt 0.2009766 0.9990234
vt 0.2009766 0.8023576
vt 0.3976424 0.9990234
f 27/25/27 20/26/20 43/27/43
vt 0.9990234 0.3009765
vt 0.9990234 0.3976424
vt 0.9023576 0.3009766
f 28/28/28 19/29/19 27/30/27
vt 0.3990234 0.9976424
vt 0.2023576 0.8009766
vt 0.3990234 0.8009766
f 19/31/19 20/32/20 27/33/27
vt 0.4009766 0.8023576
vt 0.5976424 0.9990234
vt 0.4009766 0.9990234
f 18/34/18 20/35/20 19/36/19
vt 0.5990235 0.8009766
vt 0.5990235 0.9976424
vt 0.4023576 0.8009766
f 5/37/5 30/38/30 18/39/18
vt 0.7976424 0.9990234
vt 0.6009766 0.9990234
vt 0.6009766 0.8023576
f 18/40/18 30/41/30 20/42/20
vt 0.3990234 0.4023576
vt 0.3990234 0.5976424
vt 0.3013811 0.5000000
f 30/43/30 1/44/1 20/45/20
vt 0.7990234 0.9976424
vt 0.6023576 0.8009766
vt 0.7990234 0.8009766
f 5/46/5 1/47/1 30/48/30
vt 0.9976424 0.9990234
vt 0.8009766 0.9990234
vt 0.8009766 0.8023576
f 5/49/5 26/50/26 1/51/1
vt 0.3000000 0.4986190
vt 0.2023576 0.4009766
vt 0.3976424 0.4009766
f 17/52/17 26/53/26 5/54/5
vt 0.4009766 0.5976424
vt 0.4009766 0.4023576
vt 0.4986189 0.5000000
f 17/55/17 33/56/33 26/57/26
vt 0.4023576 0.5990235
vt 0.5000000 0.5013810
vt 0.5976424 0.5990235
f 26/58/26 33/59/33 1/60/1
vt 0.8023576 0.8009766
vt 0.9990234 0.8009766
vt 0.9990234 0.9976424
f 15/61/15 34/62/34 33/63/33
vt 0.0009766 0.6023576
vt 0.1976424 0.7990234
vt 0.0009766 0.7990234
f 34/64/34 1/65/1 33/66/33
vt 0.1990234 0.6009766
vt 0.1990234 0.7976424
vt 0.0023576 0.6009766
f 25/67/25 1/68/1 34/69/34
vt 0.2009766 0.6023576
vt 0.3976424 0.7990234
vt 0.2009766 0.7990234
f 13/70/13 34/71/34 4/72/4
vt 0.2023576 0.6009766
vt 0.3990234 0.6009766
vt 0.3990234 0.7976424
f 13/73/13 36/74/36 34/75/34
vt 0.5013811 0.5000000
vt 0.5990235 0.4023576
vt 0.5990235 0.5976424
f 36/76/36 25/77/25 34/78/34
vt 0.5976424 0.4009766
vt 0.5000000 0.4986190
vt 0.4023576 0.4009766
f 13/79/13 24/80/24 36/81/36
vt 0.6009766 0.5976424
vt 0.6009766 0.4023576
vt 0.6986189 0.5000000
f 36/82/36 1/83/1 25/84/25
vt 0.6023576 0.5990235
vt 0.7000000 0.5013810
vt 0.7976424 0.5990235
f 3/85/3 37/86/37 24/87/24
vt 0.8990235 0.2009766
vt 0.8990235 0.2976424
vt 0.8023576 0.2009766
f 37/88/37 36/89/36 24/90/24
vt 0.7990234 0.4023576
vt 0.7990234 0.5976424
vt 0.7013811 0.5000000
f 3/91/3 23/92/23 37/93/37
vt 0.6023576 0.4009766
vt 0.7976424 0.4009766
vt 0.7000000 0.4986190
f 23/94/23 38/95/38 37/96/37
vt 0.9976424 0.2009766
vt 0.9009766 0.2976424
vt 0.9009766 0.2009766
f 37/97/37 38/98/38 36/99/36
vt 0.8986189 0.5000000
vt 0.8009766 0.5976424
vt 0.8009766 0.4023576
f 38/100/38 1/101/1 36/102/36
vt 0.9000000 0.5013810
vt 0.9976424 0.5990235
vt 0.8023576 0.5990235
f 2/103/2 23/104/23 3/105/3
vt 0.4009766 0.6023576
vt 0.5976424 0.7990234
vt 0.4009766 0.7990234
f 2/106/2 38/107/38 23/108/23
vt 0.5990235 0.7976424
vt 0.4023576 0.6009766
vt 0.5990235 0.6009766
f 39/109/39 38/110/38 2/111/2
vt 0.9990234 0.5976424
vt 0.9013811 0.5000000
vt 0.9990234 0.4023576
f 39/112/39 22/113/22 38/114/38
vt 0.8023576 0.4009766
vt 0.9976424 0.4009766
vt 0.9000000 0.4986190
f 22/115/22 21/116/21 38/117/38
vt 0.0986189 0.3000000
vt 0.0009766 0.3976424
vt 0.0009766 0.2023576
f 21/118/21 1/119/1 38/120/38
vt 0.6009766 0.7990234
vt 0.6009766 0.6023576
vt 0.7976424 0.7990234
f 9/121/9 41/122/41 22/123/22
vt 0.7990234 0.7976424
vt 0.6023576 0.6009766
vt 0.7990234 0.6009766
f 41/124/41 1/125/1 22/126/22
vt 0.1976424 0.3990234
vt 0.0023576 0.3990234
vt 0.1000000 0.3013811
f 22/127/22 1/128/1 21/129/21
vt 0.0009766 0.1009765
vt 0.0976424 0.1009766
vt 0.0009766 0.1976424
f 40/130/40 1/131/1 41/132/41
vt 0.1990234 0.3976424
vt 0.1013811 0.3000000
vt 0.1990234 0.2023576
f 40/133/40 42/134/42 1/135/1
vt 0.0023576 0.2009766
vt 0.1976424 0.2009766
vt 0.1000000 0.2986190
f 43/136/43 42/137/42 7/138/7
vt 0.2009766 0.3976424
vt 0.2009766 0.2023576
vt 0.2986189 0.3000000
f 7/139/7 42/140/42 40/141/40
vt 0.8009766 0.6023576
vt 0.9976424 0.7990234
vt 0.8009766 0.7990234
f 43/142/43 20/143/20 42/144/42
vt 0.0009766 0.0990234
vt 0.0009766 0.0023576
vt 0.0976424 0.0990235
f 20/145/20 1/146/1 42/147/42

usemtl material_1
vt 0.3990234 0.1023576
vt 0.3990234 0.1976424
vt 0.3513811 0.1500000
f 8/148/8 10/149/10 11/150/11
vt 0.3976424 0.1009765
vt 0.3500000 0.1486189
vt 0.3023576 0.1009766
f 8/151/8 11/152/11 12/153/12
vt 0.2990234 0.0023576
vt 0.2990234 0.0976424
vt 0.2513811 0.0500000
f 8/154/8 12/155/12 32/156/32
vt 0.1976424 0.1990234
vt 0.1009766 0.1990234
vt 0.1009766 0.1023576
f 8/157/8 32/158/32 31/159/31
vt 0.3976424 0.3990234
vt 0.2023576 0.3990234
vt 0.3000000 0.3013811
f 8/160/8 31/161/31 29/162/29
vt 0.3990234 0.3976424
vt 0.3013811 0.3000000
vt 0.3990234 0.2023576
f 8/163/8 28/164/28 6/165/6
vt 0.3976424 0.2009766
vt 0.3000000 0.2986190
vt 0.2023576 0.2009766
f 8/166/8 29/167/29 28/168/28
vt 0.2023576 0.0009766
vt 0.2976424 0.0009766
vt 0.2500000 0.0486190
f 28/169/28 29/170/29 19/171/19
vt 0.0990234 0.1023576
vt 0.0990234 0.1990234
vt 0.0023576 0.1990234
f 29/172/29 18/173/18 19/174/19
vt 0.4986189 0.3000000
vt 0.4009766 0.3976424
vt 0.4009766 0.2023576
f 29/175/29 5/176/5 18/177/18
vt 0.1990234 0.0023576
vt 0.1990234 0.0990234
vt 0.1023576 0.0990235
f 29/178/29 31/179/31 5/180/5
vt 0.1990234 0.1976424
vt 0.1023576 0.1009766
vt 0.1990234 0.1009765
f 31/181/31 17/182/17 5/183/5
vt 0.5000000 0.3013811
vt 0.5976424 0.3990234
vt 0.4023576 0.3990234
f 31/184/31 32/185/32 17/186/17
vt 0.0023576 0.0009766
vt 0.0990234 0.0009766
vt 0.0990234 0.0976424
f 32/187/32 16/188/16 17/189/17
vt 0.5013811 0.3000000
vt 0.5990235 0.2023576
vt 0.5990235 0.3976424
f 16/190/16 15/191/15 17/192/17
vt 0.1009766 0.0009766
vt 0.1976424 0.0009766
vt 0.1009766 0.0976424
f 16/193/16 32/194/32 15/195/15
vt 0.8023576 0.6009766
vt 0.9990234 0.6009766
vt 0.9990234 0.7976424
f 32/196/32 14/197/14 15/198/15
vt 0.4023576 0.2009766
vt 0.5976424 0.2009766
vt 0.5000000 0.2986190
f 32/199/32 4/200/4 14/201/14
vt 0.2009766 0.1976424
vt 0.2009766 0.1009765
vt 0.2976424 0.1009766
f 32/202/32 35/203/35 4/204/4
vt 0.3976424 0.0009766
vt 0.3500000 0.0486190
vt 0.3023576 0.0009766
f 32/205/32 12/206/12 35/207/35
vt 0.3486189 0.0500000
vt 0.3009766 0.0976424
vt 0.3009766 0.0023576
f 35/208/35 12/209/12 4/210/4
vt 0.6009766 0.2023576
vt 0.6986189 0.3000000
vt 0.6009766 0.3976424
f 12/211/12 13/212/13 4/213/4
vt 0.2009766 0.0990234
vt 0.2009766 0.0023576
vt 0.2976424 0.0990235
f 12/214/12 11/215/11 13/216/13
vt 0.6023576 0.3990234
vt 0.7000000 0.3013811
vt 0.7976424 0.3990234
f 11/217/11 3/218/3 13/219/13
vt 0.3976424 0.1990234
vt 0.3009766 0.1990234
vt 0.3009766 0.1023576
f 11/220/11 10/221/10 3/222/3
vt 0.2990234 0.1023576
vt 0.2990234 0.1990234
vt 0.2023576 0.1990234
f 10/223/10 2/224/2 3/225/3
vt 0.7990234 0.2023576
vt 0.7990234 0.3976424
vt 0.7013811 0.3000000
f 10/226/10 39/227/39 2/228/2
vt 0.3990234 0.0990234
vt 0.3023576 0.0990235
vt 0.3990234 0.0023576
f 10/229/10 8/230/8 39/231/39
vt 0.6023576 0.2009766
vt 0.7976424 0.2009766
vt 0.7000000 0.2986190
f 8/232/8 9/233/9 39/234/39
vt 0.1976424 0.5990235
vt 0.0009766 0.5990235
vt 0.0009766 0.4023576
f 8/235/8 41/236/41 9/237/9
vt 0.8009766 0.3976424
vt 0.8009766 0.2023576
vt 0.8986189 0.3000000
f 8/238/8 7/239/7 41/240/41
vt 0.8023576 0.3990234
vt 0.9000000 0.3013811
vt 0.9976424 0.3990234
f 8/241/8 43/242/43 7/243/7
vt 0.4023576 0.1009765
vt 0.4976424 0.1009766
vt 0.4500000 0.1486189
f 8/244/8 6/245/6 43/246/43
# 82 faces, 246 coords texture

# End of File
