####
#
# OBJ File Generated by Meshlab
#
####
# Object Cone1.obj
#
# Vertices: 9
# Faces: 8
#
####
mtllib ./Cone1.mtl

vn 0.0000000 1.0000000 -0.0000000
v 0.0000000 0.5000000 -0.0000000
vn 0.8944272 0.4472136 0.0000000
v 0.5000000 -0.5000000 0.0000000
vn 0.6324555 0.4472136 -0.6324555
v 0.3535534 -0.5000000 -0.3535534
vn 0.0000000 0.4472136 -0.8944272
v 0.0000000 -0.5000000 -0.5000000
vn -0.6324555 0.4472136 -0.6324555
v -0.3535534 -0.5000000 -0.3535534
vn -0.8944272 0.4472136 0.0000000
v -0.5000000 -0.5000000 -0.0000000
vn -0.6324555 0.4472136 0.6324555
v -0.3535534 -0.5000000 0.3535534
vn 0.0000000 0.4472136 0.8944272
v -0.0000000 -0.5000000 0.5000000
vn 0.6324555 0.4472136 0.6324555
v 0.3535534 -0.5000000 0.3535534
# 9 vertices, 0 vertices normals


usemtl Cone1
vt 0.4976424 0.9990234
vt 0.0009766 0.9990234
vt 0.0009766 0.5023576
f 1/1/1 2/2/2 3/3/3
vt 0.0023576 0.5009766
vt 0.4990234 0.5009766
vt 0.4990234 0.9976424
f 1/4/1 3/5/3 4/6/4
vt 0.9976424 0.9990234
vt 0.5009766 0.9990234
vt 0.5009766 0.5023576
f 1/7/1 4/8/4 5/9/5
vt 0.5023576 0.5009766
vt 0.9990234 0.5009766
vt 0.9990234 0.9976424
f 1/10/1 5/11/5 6/12/6
vt 0.4976424 0.4990234
vt 0.0009766 0.4990234
vt 0.0009766 0.0023576
f 1/13/1 6/14/6 7/15/7
vt 0.0023576 0.0009766
vt 0.4990234 0.0009766
vt 0.4990234 0.4976424
f 1/16/1 7/17/7 8/18/8
vt 0.9976424 0.4990234
vt 0.5009766 0.4990234
vt 0.5009766 0.0023576
f 1/19/1 8/20/8 9/21/9
vt 0.5023576 0.0009766
vt 0.9990234 0.0009766
vt 0.9990234 0.4976424
f 1/22/1 9/23/9 2/24/2
# 8 faces, 24 coords texture

# End of File
