####
#
# OBJ File Generated by Meshlab
#
####
# Object Cone1.obj
#
# Vertices: 91
# Faces: 90
#
####
mtllib ./Cone1.mtl

vn 1.0000000 -0.0000000 0.0000000
vt 0.5000000 0.0000000
v 0.5000000 0.0000000 0.0000000
vn 0.4472136 0.8944272 0.0000000
vt -0.5000000 0.5000000
v -0.5000000 0.5000000 0.0000000
vn 0.4472136 0.8922484 0.0623922
vt -0.5000000 0.4987820
v -0.5000000 0.4987820 0.0348782
vn 0.4472136 0.8857227 0.1244802
vt -0.5000000 0.4951340
v -0.5000000 0.4951340 0.0695866
vn 0.4472137 0.8748818 0.1859618
vt -0.5000000 0.4890738
v -0.5000000 0.4890738 0.1039558
vn 0.4472136 0.8597786 0.2465377
vt -0.5000000 0.4806308
v -0.5000000 0.4806308 0.1378187
vn 0.4472136 0.8404866 0.3059123
vt -0.5000000 0.4698463
v -0.5000000 0.4698463 0.1710101
vn 0.4472136 0.8170999 0.3637964
vt -0.5000000 0.4567727
v -0.5000000 0.4567727 0.2033683
vn 0.4472136 0.7897325 0.4199080
vt -0.5000000 0.4414738
v -0.5000000 0.4414738 0.2347358
vn 0.4472136 0.7585173 0.4739741
vt -0.5000000 0.4240240
v -0.5000000 0.4240240 0.2649596
vn 0.4472136 0.7236069 0.5257310
vt -0.5000000 0.4045085
v -0.5000000 0.4045085 0.2938926
vn 0.4472136 0.6851710 0.5749267
vt -0.5000000 0.3830222
v -0.5000000 0.3830222 0.3213938
vn 0.4472135 0.6433970 0.6213214
vt -0.5000000 0.3596699
v -0.5000000 0.3596699 0.3473292
vn 0.4472136 0.5984887 0.6646888
vt -0.5000000 0.3345653
v -0.5000000 0.3345653 0.3715724
vn 0.4472136 0.5506643 0.7048183
vt -0.5000000 0.3078308
v -0.5000000 0.3078308 0.3940054
vn 0.4472136 0.5001571 0.7415139
vt -0.5000000 0.2795964
v -0.5000000 0.2795964 0.4145188
vn 0.4472136 0.4472138 0.7745966
vt -0.5000000 0.2500000
v -0.5000000 0.2500000 0.4330127
vn 0.4472135 0.3920912 0.8039058
vt -0.5000000 0.2191856
v -0.5000000 0.2191856 0.4493970
vn 0.4472135 0.3350584 0.8292984
vt -0.5000000 0.1873033
v -0.5000000 0.1873033 0.4635919
vn 0.4472136 0.2763932 0.8506508
vt -0.5000000 0.1545085
v -0.5000000 0.1545085 0.4755283
vn 0.4472137 0.2163812 0.8678589
vt -0.5000000 0.1209610
v -0.5000000 0.1209610 0.4851479
vn 0.4472136 0.1553158 0.8808388
vt -0.5000000 0.0868241
v -0.5000000 0.0868241 0.4924039
vn 0.4472136 0.0934933 0.8895274
vt -0.5000000 0.0522642
v -0.5000000 0.0522642 0.4972610
vn 0.4472136 0.0312150 0.8938823
vt -0.5000000 0.0174497
v -0.5000000 0.0174497 0.4996954
vn 0.4472136 -0.0312150 0.8938823
vt -0.5000000 -0.0174497
v -0.5000000 -0.0174497 0.4996954
vn 0.4472136 -0.0934933 0.8895274
vt -0.5000000 -0.0522642
v -0.5000000 -0.0522642 0.4972610
vn 0.4472136 -0.1553158 0.8808388
vt -0.5000000 -0.0868241
v -0.5000000 -0.0868241 0.4924039
vn 0.4472137 -0.2163812 0.8678589
vt -0.5000000 -0.1209610
v -0.5000000 -0.1209610 0.4851479
vn 0.4472136 -0.2763932 0.8506508
vt -0.5000000 -0.1545085
v -0.5000000 -0.1545085 0.4755283
vn 0.4472135 -0.3350584 0.8292984
vt -0.5000000 -0.1873033
v -0.5000000 -0.1873033 0.4635919
vn 0.4472135 -0.3920912 0.8039058
vt -0.5000000 -0.2191856
v -0.5000000 -0.2191856 0.4493970
vn 0.4472136 -0.4472138 0.7745966
vt -0.5000000 -0.2500000
v -0.5000000 -0.2500000 0.4330127
vn 0.4472136 -0.5001571 0.7415139
vt -0.5000000 -0.2795964
v -0.5000000 -0.2795964 0.4145188
vn 0.4472136 -0.5506643 0.7048183
vt -0.5000000 -0.3078308
v -0.5000000 -0.3078308 0.3940054
vn 0.4472136 -0.5984887 0.6646888
vt -0.5000000 -0.3345653
v -0.5000000 -0.3345653 0.3715724
vn 0.4472135 -0.6433970 0.6213214
vt -0.5000000 -0.3596699
v -0.5000000 -0.3596699 0.3473292
vn 0.4472136 -0.6851710 0.5749267
vt -0.5000000 -0.3830222
v -0.5000000 -0.3830222 0.3213938
vn 0.4472136 -0.7236069 0.5257310
vt -0.5000000 -0.4045085
v -0.5000000 -0.4045085 0.2938926
vn 0.4472136 -0.7585173 0.4739741
vt -0.5000000 -0.4240240
v -0.5000000 -0.4240240 0.2649596
vn 0.4472136 -0.7897325 0.4199080
vt -0.5000000 -0.4414738
v -0.5000000 -0.4414738 0.2347358
vn 0.4472136 -0.8170999 0.3637964
vt -0.5000000 -0.4567727
v -0.5000000 -0.4567727 0.2033683
vn 0.4472136 -0.8404866 0.3059123
vt -0.5000000 -0.4698463
v -0.5000000 -0.4698463 0.1710101
vn 0.4472136 -0.8597786 0.2465377
vt -0.5000000 -0.4806308
v -0.5000000 -0.4806308 0.1378187
vn 0.4472137 -0.8748818 0.1859618
vt -0.5000000 -0.4890738
v -0.5000000 -0.4890738 0.1039558
vn 0.4472136 -0.8857227 0.1244802
vt -0.5000000 -0.4951340
v -0.5000000 -0.4951340 0.0695866
vn 0.4472136 -0.8922484 0.0623922
vt -0.5000000 -0.4987820
v -0.5000000 -0.4987820 0.0348782
vn 0.4472136 -0.8944272 0.0000000
vt -0.5000000 -0.5000000
v -0.5000000 -0.5000000 0.0000000
vn 0.4472136 -0.8922484 -0.0623922
vt -0.5000000 -0.4987820
v -0.5000000 -0.4987820 -0.0348782
vn 0.4472136 -0.8857227 -0.1244802
vt -0.5000000 -0.4951340
v -0.5000000 -0.4951340 -0.0695866
vn 0.4472137 -0.8748818 -0.1859618
vt -0.5000000 -0.4890738
v -0.5000000 -0.4890738 -0.1039558
vn 0.4472136 -0.8597786 -0.2465377
vt -0.5000000 -0.4806308
v -0.5000000 -0.4806308 -0.1378187
vn 0.4472136 -0.8404866 -0.3059123
vt -0.5000000 -0.4698463
v -0.5000000 -0.4698463 -0.1710101
vn 0.4472136 -0.8170999 -0.3637964
vt -0.5000000 -0.4567727
v -0.5000000 -0.4567727 -0.2033683
vn 0.4472136 -0.7897325 -0.4199080
vt -0.5000000 -0.4414738
v -0.5000000 -0.4414738 -0.2347358
vn 0.4472136 -0.7585173 -0.4739741
vt -0.5000000 -0.4240240
v -0.5000000 -0.4240240 -0.2649596
vn 0.4472136 -0.7236069 -0.5257310
vt -0.5000000 -0.4045085
v -0.5000000 -0.4045085 -0.2938926
vn 0.4472136 -0.6851710 -0.5749267
vt -0.5000000 -0.3830222
v -0.5000000 -0.3830222 -0.3213938
vn 0.4472135 -0.6433970 -0.6213214
vt -0.5000000 -0.3596699
v -0.5000000 -0.3596699 -0.3473292
vn 0.4472136 -0.5984887 -0.6646888
vt -0.5000000 -0.3345653
v -0.5000000 -0.3345653 -0.3715724
vn 0.4472136 -0.5506643 -0.7048183
vt -0.5000000 -0.3078308
v -0.5000000 -0.3078308 -0.3940054
vn 0.4472136 -0.5001571 -0.7415139
vt -0.5000000 -0.2795964
v -0.5000000 -0.2795964 -0.4145188
vn 0.4472136 -0.4472138 -0.7745966
vt -0.5000000 -0.2500000
v -0.5000000 -0.2500000 -0.4330127
vn 0.4472135 -0.3920912 -0.8039058
vt -0.5000000 -0.2191856
v -0.5000000 -0.2191856 -0.4493970
vn 0.4472135 -0.3350584 -0.8292984
vt -0.5000000 -0.1873033
v -0.5000000 -0.1873033 -0.4635919
vn 0.4472136 -0.2763932 -0.8506508
vt -0.5000000 -0.1545085
v -0.5000000 -0.1545085 -0.4755283
vn 0.4472137 -0.2163812 -0.8678589
vt -0.5000000 -0.1209610
v -0.5000000 -0.1209610 -0.4851479
vn 0.4472136 -0.1553158 -0.8808388
vt -0.5000000 -0.0868241
v -0.5000000 -0.0868241 -0.4924039
vn 0.4472136 -0.0934933 -0.8895274
vt -0.5000000 -0.0522642
v -0.5000000 -0.0522642 -0.4972610
vn 0.4472136 -0.0312150 -0.8938823
vt -0.5000000 -0.0174497
v -0.5000000 -0.0174497 -0.4996954
vn 0.4472136 0.0312150 -0.8938823
vt -0.5000000 0.0174497
v -0.5000000 0.0174497 -0.4996954
vn 0.4472136 0.0934933 -0.8895274
vt -0.5000000 0.0522642
v -0.5000000 0.0522642 -0.4972610
vn 0.4472136 0.1553158 -0.8808388
vt -0.5000000 0.0868241
v -0.5000000 0.0868241 -0.4924039
vn 0.4472137 0.2163812 -0.8678589
vt -0.5000000 0.1209610
v -0.5000000 0.1209610 -0.4851479
vn 0.4472136 0.2763932 -0.8506508
vt -0.5000000 0.1545085
v -0.5000000 0.1545085 -0.4755283
vn 0.4472135 0.3350584 -0.8292984
vt -0.5000000 0.1873033
v -0.5000000 0.1873033 -0.4635919
vn 0.4472135 0.3920912 -0.8039058
vt -0.5000000 0.2191856
v -0.5000000 0.2191856 -0.4493970
vn 0.4472136 0.4472138 -0.7745966
vt -0.5000000 0.2500000
v -0.5000000 0.2500000 -0.4330127
vn 0.4472136 0.5001571 -0.7415139
vt -0.5000000 0.2795964
v -0.5000000 0.2795964 -0.4145188
vn 0.4472136 0.5506643 -0.7048183
vt -0.5000000 0.3078308
v -0.5000000 0.3078308 -0.3940054
vn 0.4472136 0.5984887 -0.6646888
vt -0.5000000 0.3345653
v -0.5000000 0.3345653 -0.3715724
vn 0.4472135 0.6433970 -0.6213214
vt -0.5000000 0.3596699
v -0.5000000 0.3596699 -0.3473292
vn 0.4472136 0.6851710 -0.5749267
vt -0.5000000 0.3830222
v -0.5000000 0.3830222 -0.3213938
vn 0.4472136 0.7236069 -0.5257310
vt -0.5000000 0.4045085
v -0.5000000 0.4045085 -0.2938926
vn 0.4472136 0.7585173 -0.4739741
vt -0.5000000 0.4240240
v -0.5000000 0.4240240 -0.2649596
vn 0.4472136 0.7897325 -0.4199080
vt -0.5000000 0.4414738
v -0.5000000 0.4414738 -0.2347358
vn 0.4472136 0.8170999 -0.3637964
vt -0.5000000 0.4567727
v -0.5000000 0.4567727 -0.2033683
vn 0.4472136 0.8404866 -0.3059123
vt -0.5000000 0.4698463
v -0.5000000 0.4698463 -0.1710101
vn 0.4472136 0.8597786 -0.2465377
vt -0.5000000 0.4806308
v -0.5000000 0.4806308 -0.1378187
vn 0.4472137 0.8748818 -0.1859618
vt -0.5000000 0.4890738
v -0.5000000 0.4890738 -0.1039558
vn 0.4472136 0.8857227 -0.1244802
vt -0.5000000 0.4951340
v -0.5000000 0.4951340 -0.0695866
vn 0.4472136 0.8922484 -0.0623922
vt -0.5000000 0.4987820
v -0.5000000 0.4987820 -0.0348782
# 91 vertices, 0 vertices normals


usemtl material_0
f 1/1/1 2/2/2 3/3/3
f 1/1/1 3/3/3 4/4/4
f 1/1/1 4/4/4 5/5/5
f 1/1/1 5/5/5 6/6/6
f 1/1/1 6/6/6 7/7/7
f 1/1/1 7/7/7 8/8/8
f 1/1/1 8/8/8 9/9/9
f 1/1/1 9/9/9 10/10/10
f 1/1/1 10/10/10 11/11/11
f 1/1/1 11/11/11 12/12/12
f 1/1/1 12/12/12 13/13/13
f 1/1/1 13/13/13 14/14/14
f 1/1/1 14/14/14 15/15/15
f 1/1/1 15/15/15 16/16/16
f 1/1/1 16/16/16 17/17/17
f 1/1/1 17/17/17 18/18/18
f 1/1/1 18/18/18 19/19/19
f 1/1/1 19/19/19 20/20/20
f 1/1/1 20/20/20 21/21/21
f 1/1/1 21/21/21 22/22/22
f 1/1/1 22/22/22 23/23/23
f 1/1/1 23/23/23 24/24/24
f 1/1/1 24/24/24 25/25/25
f 1/1/1 25/25/25 26/26/26
f 1/1/1 26/26/26 27/27/27
f 1/1/1 27/27/27 28/28/28
f 1/1/1 28/28/28 29/29/29
f 1/1/1 29/29/29 30/30/30
f 1/1/1 30/30/30 31/31/31
f 1/1/1 31/31/31 32/32/32
f 1/1/1 32/32/32 33/33/33
f 1/1/1 33/33/33 34/34/34
f 1/1/1 34/34/34 35/35/35
f 1/1/1 35/35/35 36/36/36
f 1/1/1 36/36/36 37/37/37
f 1/1/1 37/37/37 38/38/38
f 1/1/1 38/38/38 39/39/39
f 1/1/1 39/39/39 40/40/40
f 1/1/1 40/40/40 41/41/41
f 1/1/1 41/41/41 42/42/42
f 1/1/1 42/42/42 43/43/43
f 1/1/1 43/43/43 44/44/44
f 1/1/1 44/44/44 45/45/45
f 1/1/1 45/45/45 46/46/46
f 1/1/1 46/46/46 47/47/47
f 1/1/1 47/47/47 48/48/48
f 1/1/1 48/48/48 49/49/49
f 1/1/1 49/49/49 50/50/50
f 1/1/1 50/50/50 51/51/51
f 1/1/1 51/51/51 52/52/52
f 1/1/1 52/52/52 53/53/53
f 1/1/1 53/53/53 54/54/54
f 1/1/1 54/54/54 55/55/55
f 1/1/1 55/55/55 56/56/56
f 1/1/1 56/56/56 57/57/57
f 1/1/1 57/57/57 58/58/58
f 1/1/1 58/58/58 59/59/59
f 1/1/1 59/59/59 60/60/60
f 1/1/1 60/60/60 61/61/61
f 1/1/1 61/61/61 62/62/62
f 1/1/1 62/62/62 63/63/63
f 1/1/1 63/63/63 64/64/64
f 1/1/1 64/64/64 65/65/65
f 1/1/1 65/65/65 66/66/66
f 1/1/1 66/66/66 67/67/67
f 1/1/1 67/67/67 68/68/68
f 1/1/1 68/68/68 69/69/69
f 1/1/1 69/69/69 70/70/70
f 1/1/1 70/70/70 71/71/71
f 1/1/1 71/71/71 72/72/72
f 1/1/1 72/72/72 73/73/73
f 1/1/1 73/73/73 74/74/74
f 1/1/1 74/74/74 75/75/75
f 1/1/1 75/75/75 76/76/76
f 1/1/1 76/76/76 77/77/77
f 1/1/1 77/77/77 78/78/78
f 1/1/1 78/78/78 79/79/79
f 1/1/1 79/79/79 80/80/80
f 1/1/1 80/80/80 81/81/81
f 1/1/1 81/81/81 82/82/82
f 1/1/1 82/82/82 83/83/83
f 1/1/1 83/83/83 84/84/84
f 1/1/1 84/84/84 85/85/85
f 1/1/1 85/85/85 86/86/86
f 1/1/1 86/86/86 87/87/87
f 1/1/1 87/87/87 88/88/88
f 1/1/1 88/88/88 89/89/89
f 1/1/1 89/89/89 90/90/90
f 1/1/1 90/90/90 91/91/91
f 1/1/1 91/91/91 2/2/2
# 90 faces, 0 coords texture

# End of File
